<svg xmlns="http://www.w3.org/2000/svg" viewBox="0 0 305.13 184.78"><defs><style>.cls-1{fill:#abcd03;}.cls-2{fill:#fffcdb;}.cls-3{fill:#7d4698;}</style></defs><title>Asset 1</title><g id="Layer_2" data-name="Layer 2"><g id="图层_1" data-name="图层 1"><g id="layer3"><g id="layer5"><path id="path2554" class="cls-1" d="M172.22,13.79,167.3,33.32c7-13.79,18-24.17,30.73-33.32-9.29,10.79-17.75,21.58-22.94,32.37,8.74-12.29,20.49-19.12,33.73-23.63a232.37,232.37,0,0,0-42.26,49.49l-8.47-3.69c1.5-13.52,6.61-27.37,14.12-40.75Z"/><path id="path2534" class="cls-2" d="M149.61,51l16.12,6.69c0,4.1-.33,16.6,2.23,20.28,26.8,34.52,22.29,103.71-5.43,105.49-42.22,0-58.32-28.68-58.32-55,0-24,28.82-40,46-54.22,4.37-3.82,3.61-12.28-.62-23.2Z"/><path id="path2536" class="cls-3" d="M165.73,57.4l5.81,3c-.55,3.82.27,12.29,4.1,14.48,16.94,10.52,32.91,22,39.2,33.46,22.4,40.43-15.71,77.85-48.62,74.3,17.89-13.25,23.08-40.43,16.39-70.06a106.71,106.71,0,0,0-14.48-34c-3.25-5.83-2.12-13.07-2.39-21.12Z"/></g><g id="layer4"><path id="path2538" d="M162.93,56.4l12,1.64c-3.55,11.74,7,19.94,10.38,21.85,7.65,4.23,15,8.6,20.9,13.93a53.15,53.15,0,0,1,17.35,39.33,50.85,50.85,0,0,1-18.3,38.79c-10.79,9-25.68,12.84-40.15,12.84-9,0-17.07-.41-25.81-3.28-19.94-6.69-34.83-23.76-36.06-44.25-1.09-16,2.46-28.13,14.89-40.84,6.42-6.69,19.39-14.34,28.27-20.49,4.37-3,9-11.47.14-27.45l1.78-1.37,13.16,8.81-11.11-4.58a63.78,63.78,0,0,1,4.1,9.29c1.23,5.05.68,10-.41,12.15-5.6,10.11-15.16,12.84-22.12,18.57-12.29,10.11-25.68,18.16-24.17,45.89.68,13.66,11.34,30.32,27.31,38.1,9,4.37,19.39,6.15,29.91,6.69,9.42.41,27.45-5.19,37.28-13.38a46.3,46.3,0,0,0,16.39-35.51,47.59,47.59,0,0,0-15.71-35.78c-5.87-5.33-15.57-11.74-21.58-15.16s-13.52-13-11.06-22.12Z"/><path id="path2540" d="M159.24,76.62c-1.23,6.28-2.6,17.62-8.06,21.85-2.32,1.64-4.64,3.28-7.1,4.92-9.83,6.69-19.67,13-24.17,29.09-1,3.41-.14,7.1.68,10.52,2.46,9.83,9.42,20.49,14.89,26.77,0,.27,1.09,1,1.09,1.23,4.51,5.33,5.87,6.83,22.94,10.65l-.41,1.91c-10.24-2.73-18.71-5.19-24-11.34a7.84,7.84,0,0,0-1-1.09c-5.74-6.56-12.7-17.48-15.3-27.72-1-4.1-1.77-7.24-.68-11.47,4.64-16.66,14.75-23.22,25-30.18a81.22,81.22,0,0,0,7.24-4.64c4.23-3.14,6.55-12.7,8.88-20.49Z"/><path id="path2542" d="M163.61,102.57c.14,7.1-.56,10.66,1.22,15.72,1.09,3,4.78,7.1,5.88,11.06,1.5,5.33,3.14,11.2,3,14.75a96.88,96.88,0,0,1-2,19.94c-1.35,6.77-4.47,12.58-9.72,15.88-5.37-1.11-11.68-3-15.41-6.19-7.24-6.28-13.65-16.79-14.47-25.94-.68-7.51,6.27-18.59,16-24.19,8.19-4.78,10.1-10.23,11.88-19-2.46,7.65-4.77,14.06-12.69,18.16-11.47,6-17.36,16.1-16.81,25.66.82,12.29,5.74,20.62,15.44,27.31a49.67,49.67,0,0,0,16.53,6.72v-.62c3.62-.68,8.32-6.63,10.66-14.69a84.54,84.54,0,0,0,2.72-22.37c-.14-3.41-1.64-10.81-4.37-17.5a82.44,82.44,0,0,0-5.31-10C164.44,114.72,164.43,109.12,163.61,102.57Z"/><path id="path2544" d="M162.8,129.35c.14,4.78,2.06,10.9,2.88,17.19a74,74,0,0,1,.25,13.41c-.13,4.74-1.72,13.24-3.87,17.38-2-.93-2.83-2-4.16-3.72a34.41,34.41,0,0,1-3.84-7.37,31.4,31.4,0,0,1-2.19-7.12A23.52,23.52,0,0,1,156.11,142c3.55-5.19,4.36-5.58,5.59-11.59-1.64,5.33-2.86,5.87-6.69,10.38-4.23,4.92-4.94,12.16-4.94,18,0,2.46,1,5.19,1.94,7.78s2,5.45,3.53,7.5c2.26,3.32,5.15,5.21,6.56,5.56h0l.09,0v-.16a18.38,18.38,0,0,0,4.78-8.84c.68-3.55.84-7.11,1.25-11.34a46,46,0,0,0-.84-13.25c-1.36-6.15-3.67-12.41-4.62-16.78Z"/><path id="path2550" d="M163.2,70.88c.14,7.1.68,20.35,2.6,25.54.55,1.77,5.6,9.56,9.15,19,2.46,6.56,3,12.57,3.42,14.34,1.64,7.79-.41,20.9-3.14,33.32-1.36,6.69-6,15-11.33,18.3l-1.09,1.91c3-.14,10.38-7.37,13-16.39,4.37-15.3,6.15-22.4,4.1-39.33a52.74,52.74,0,0,0-3.55-13.25c-3.82-9.15-9.29-17.89-10-19.67-1.23-2.87-2.87-15.29-3.14-23.76Z"/><path id="path2552" d="M165.77,61.17c-.41,7.3-.51,10,.85,15.31,1.5,5.87,9.15,14.34,12.29,24,6,18.57,4.51,42.88.14,61.87-1.64,6.69-9.42,16.39-17.21,19.53l5.74,1.37c3.14-.14,11.2-7.65,14.34-16.25,5.05-13.52,6-29.64,4-46.57-.14-1.64-2.87-16.25-5.46-22.4-3.69-9.15-10.24-17.35-10.93-19.12a41.9,41.9,0,0,1-3.72-17.77Z"/><rect id="rect2556" x="161.42" y="56.03" width="0.55" height="126.02"/></g></g><path id="path2528" class="cls-3" d="M7.65,17.89H117.32A7.72,7.72,0,0,1,125,25.54V57.91a7.72,7.72,0,0,1-7.65,7.65H94.78c-5.05,0-7.24,2.87-7.24,6.14v106A6.27,6.27,0,0,1,81.26,184H44a6.15,6.15,0,0,1-6.15-6.28V70.74a5.38,5.38,0,0,0-5.33-5.19H7.65A7.64,7.64,0,0,1,0,57.91V25.54A7.63,7.63,0,0,1,7.65,17.89Z"/><path id="path2532" class="cls-3" d="M289,60.77h9.7a6.38,6.38,0,0,1,6.42,6.28v34.69c0,4.51.27,6.28-5.19,6.28-10.79,0-15.7,5.74-15.7,12v58.59c0,2.73-2.6,5.05-5.74,5.05H243.67c-3.14,0-5.74-2.32-5.74-5.05V111.85a24.52,24.52,0,0,1,.14-3.82A51.23,51.23,0,0,1,284,61c.82-.08,3.74-.27,5.05-.27Z"/></g></g></svg>