<svg xmlns="http://www.w3.org/2000/svg" viewBox="0 0 305.13 184.78"><defs><style>.cls-1,.cls-2{fill:#fff;}.cls-2{stroke:#00f9c9;stroke-linecap:round;stroke-linejoin:round;stroke-width:0;}</style></defs><title>Asset 2</title><g id="Layer_2" data-name="Layer 2"><g id="图层_1" data-name="图层 1"><path class="cls-1" d="M165.71,62.17l.05-1c0,.55,0,1.1,0,1.63,0-1.6,0-3.25,0-4.93h0C165.72,58.92,165.7,60.42,165.71,62.17Z"/><polygon class="cls-1" points="172.22 13.79 172.22 13.79 172.22 13.79 172.22 13.79"/><path class="cls-1" d="M206.23,93.83c-5.87-5.33-13.25-9.7-20.9-13.93C181.92,78,171.4,69.79,174.95,58l-7.6-1A232.85,232.85,0,0,1,208.82,8.74c-13.25,4.51-25,11.34-33.73,23.63C180.28,21.58,188.74,10.79,198,0c-12.7,9.15-23.76,19.53-30.73,33.32l4.92-19.53c-7.36,13.12-12.41,26.68-14,39.94l-9.88-6.62-1.78,1.37c8.88,16,4.23,24.45-.14,27.45-8.88,6.15-21.85,13.79-28.27,20.49-12.43,12.7-16,24.86-14.89,40.83,1.23,20.49,16.12,37.56,36.05,44.25,8.74,2.87,16.8,3.28,25.81,3.28,14.48,0,29.36-3.82,40.15-12.84a50.85,50.85,0,0,0,18.3-38.79A53.15,53.15,0,0,0,206.23,93.83Zm-40.46-31c0-.54,0-1.08,0-1.63l-.05,1c0-1.75,0-3.25,0-4.3h0C165.78,59.56,165.78,61.2,165.76,62.8Z"/><path class="cls-1" d="M125,57.91V25.54a7.72,7.72,0,0,0-7.65-7.65H7.65A7.63,7.63,0,0,0,0,25.54V57.91a7.64,7.64,0,0,0,7.65,7.65H32.51a5.38,5.38,0,0,1,5.33,5.19V177.68A6.15,6.15,0,0,0,44,184H81.26a6.27,6.27,0,0,0,6.28-6.28V71.7c0-3.28,2.18-6.14,7.24-6.14h22.53A7.72,7.72,0,0,0,125,57.91Z"/><line class="cls-2" x1="289.01" y1="60.77" x2="289.01" y2="60.77"/><path class="cls-1" d="M305.13,101.75V67.06a6.38,6.38,0,0,0-6.42-6.28H289c-1.31,0-4.23.19-5.05.27a51.23,51.23,0,0,0-45.89,47,24.51,24.51,0,0,0-.14,3.82v66.78c0,2.73,2.59,5.05,5.74,5.05H278.5c3.14,0,5.74-2.32,5.74-5.05V120c0-6.28,4.92-12,15.71-12C305.4,108,305.13,106.25,305.13,101.75Z"/></g></g></svg>